<?xml version="1.0" standalone="no"?>
<!DOCTYPE svg PUBLIC "-//W3C//DTD SVG 20010904//EN"
 "http://www.w3.org/TR/2001/REC-SVG-20010904/DTD/svg10.dtd">
<svg version="1.0" xmlns="http://www.w3.org/2000/svg"
 width="300.000000pt" height="300.000000pt" fill="#ffffff" viewBox="0 0 300.000000 300.000000"
 preserveAspectRatio="xMidYMid meet">
<metadata>
Created by potrace 1.10, written by Peter Selinger 2001-2011
</metadata>
<g transform="translate(0.000000,300.000000) scale(0.100000,-0.100000)"
fill="#FFFFFF" stroke="none">
<path d="M545 2207 c-70 -19 -110 -42 -160 -92 -60 -59 -97 -135 -103 -211 -4
-57 -2 -63 26 -95 31 -35 31 -36 16 -79 -12 -34 -15 -96 -13 -300 0 -193 -2
-264 -12 -281 -7 -13 -13 -53 -13 -89 0 -165 143 -282 329 -267 130 10 293 77
386 160 31 27 32 27 53 9 34 -31 52 -33 144 -17 140 24 371 34 563 23 240 -13
257 -8 268 75 l6 42 25 -40 c37 -61 100 -124 145 -148 44 -22 125 -28 147 -9
9 7 19 8 28 2 8 -6 44 -10 79 -10 62 0 65 1 106 43 30 29 46 55 51 81 3 21 15
47 25 57 57 57 98 205 106 379 8 190 -25 350 -86 411 -23 23 -26 32 -23 83 9
146 -118 254 -257 216 -82 -22 -180 -143 -168 -207 4 -21 -3 -37 -29 -67 -19
-22 -40 -57 -46 -78 -6 -21 -15 -38 -19 -38 -20 0 -17 42 6 91 14 30 25 71 25
92 0 118 -147 234 -327 258 -146 19 -319 -31 -419 -123 l-41 -38 -7 31 c-8 43
-64 96 -110 105 -23 4 -55 2 -79 -6 -45 -13 -107 -68 -107 -95 0 -12 -12 -6
-47 23 -91 75 -189 110 -328 117 -56 3 -109 0 -140 -8z m315 -93 c86 -33 140
-111 140 -204 0 -53 -34 -144 -75 -202 l-36 -49 39 -44 c49 -56 98 -148 107
-202 19 -120 -87 -304 -224 -387 -199 -121 -401 -85 -401 71 0 33 7 50 30 76
l30 35 0 279 c0 272 -1 280 -21 299 -20 18 -21 27 -17 124 6 137 22 173 86
194 116 38 259 43 342 10z m409 -9 c30 -15 41 -33 41 -65 0 -83 -117 -133
-175 -75 -37 36 -33 79 9 121 38 38 77 44 125 19z m669 0 c101 -30 169 -106
143 -161 -15 -33 -62 -32 -137 4 -54 25 -69 27 -174 26 -85 0 -149 -8 -248
-28 -84 -18 -137 -25 -143 -19 -13 13 74 94 132 124 100 51 169 69 275 69 61
0 120 -6 152 -15z m-1533 -81 c-22 -86 -20 -205 5 -251 18 -35 20 -57 20 -288
l0 -250 -30 -50 c-49 -83 -36 -164 35 -223 82 -67 208 -64 355 9 61 31 94 56
149 115 l70 75 14 -28 c30 -58 49 -66 134 -61 43 2 91 12 107 20 23 12 37 13
58 6 40 -14 311 -6 330 10 12 10 22 9 49 -2 19 -7 76 -17 126 -21 90 -6 93 -6
117 18 48 48 46 73 -15 148 -11 14 -23 44 -26 67 -5 38 -3 42 15 42 28 0 39
-12 136 -160 85 -128 122 -165 200 -198 47 -21 163 -42 229 -42 62 -1 62 -1
40 -19 -19 -16 -40 -19 -150 -19 -158 1 -181 11 -262 116 -44 57 -67 69 -92
46 -10 -9 -19 -22 -19 -29 0 -6 -11 -22 -24 -34 -24 -22 -24 -22 -209 -12
-199 11 -268 9 -505 -16 -143 -15 -155 -15 -191 1 -35 16 -41 17 -68 2 -17 -8
-44 -27 -61 -41 -45 -38 -167 -91 -252 -111 -86 -19 -179 -15 -230 11 -101 51
-154 158 -127 254 6 20 14 164 18 321 4 157 10 302 14 322 6 31 3 42 -19 71
-32 41 -34 94 -6 155 20 44 70 115 77 109 2 -2 -3 -30 -12 -63z m2133 31 c54
-45 51 -124 -5 -147 l-28 -12 25 -4 c37 -6 69 -40 101 -105 38 -80 52 -176 47
-315 -6 -142 -31 -228 -84 -291 -37 -42 -37 -43 -21 -71 23 -38 21 -63 -4 -86
-32 -28 -170 -26 -267 4 -94 29 -138 70 -217 197 -33 54 -76 116 -95 138 -31
34 -42 40 -87 44 l-52 5 5 -58 c8 -85 22 -124 50 -136 28 -13 42 -53 27 -77
-9 -13 -27 -15 -99 -13 -112 3 -131 7 -144 32 -9 16 -5 29 16 66 27 46 27 46
32 304 l5 259 -32 30 c-17 16 -31 38 -31 49 0 38 24 45 133 39 164 -9 232 -45
300 -158 59 -100 50 -184 -28 -259 l-35 -33 44 -46 c23 -26 66 -87 95 -136 75
-127 99 -155 129 -155 l25 0 -27 25 c-36 33 -90 154 -106 235 -19 102 -15 263
9 342 28 89 77 160 119 173 38 11 40 17 10 30 -17 7 -24 20 -26 48 -3 32 2 43
31 72 32 32 40 35 95 35 50 0 66 -4 90 -25z m-1479 -25 c4 0 13 -17 19 -39 7
-21 19 -44 27 -51 21 -18 19 -27 -9 -34 -13 -3 -31 -8 -39 -11 -11 -5 -16 6
-21 42 -3 26 -9 61 -13 77 -5 25 -3 28 11 23 10 -4 21 -7 25 -7z m321 -16 c0
-20 -46 -77 -73 -91 l-32 -16 20 24 c11 13 23 26 27 29 4 3 11 18 17 33 9 23
41 39 41 21z m904 -66 c5 -26 1 -37 -23 -62 -16 -17 -43 -58 -60 -91 -26 -49
-31 -54 -27 -28 3 18 22 56 43 85 21 29 39 65 39 80 3 53 4 59 13 54 4 -3 11
-20 15 -38z m-647 -50 c33 -27 21 -90 -22 -110 -22 -10 -28 -9 -41 11 -12 17
-24 21 -52 19 -48 -4 -59 -27 -64 -140 l-4 -87 25 6 c39 9 61 33 61 65 0 25 4
29 23 26 21 -3 22 -7 25 -117 2 -85 -1 -117 -10 -123 -19 -12 -28 -10 -28 6 0
20 -24 37 -66 46 l-37 9 7 -107 c8 -126 20 -152 71 -152 35 0 69 26 81 62 7
23 40 23 53 1 5 -10 6 -51 4 -91 -7 -92 -7 -92 -197 -92 -171 0 -189 10 -152
86 11 21 16 99 21 299 7 265 7 270 -14 294 -23 26 -28 66 -9 77 6 4 59 13 117
20 109 12 187 10 208 -8z m-362 -48 c5 -23 0 -37 -22 -66 l-28 -37 -3 -216
c-4 -245 0 -274 34 -303 24 -22 31 -61 15 -87 -10 -15 -76 -30 -142 -31 -34 0
-51 5 -64 20 -17 19 -17 22 -2 57 21 51 26 111 29 345 2 191 1 199 -20 221
-25 26 -30 91 -9 104 16 10 87 20 154 22 49 1 52 0 58 -29z m423 -291 c-2
-114 -6 -211 -11 -215 -4 -4 -13 -2 -19 4 -23 23 -61 13 -100 -25 -33 -32 -40
-35 -52 -23 -18 20 -31 126 -16 135 6 4 22 0 35 -9 33 -22 42 -20 70 10 23 25
25 34 25 129 0 88 -3 106 -21 129 -23 29 -54 33 -87 10 -21 -15 -22 -14 -22
19 0 47 18 60 54 42 38 -20 66 -18 96 5 47 36 51 18 48 -211z m-663 177 c12
-17 16 -49 16 -111 0 -48 -2 -89 -4 -91 -4 -5 -86 102 -94 122 -5 14 44 104
58 104 5 0 16 -11 24 -24z m260 -213 c-5 -126 -8 -234 -8 -241 0 -9 -3 -10
-11 -2 -7 7 -12 85 -14 213 -3 198 4 257 29 257 8 0 9 -60 4 -227z m865 -74
c0 -32 -16 -35 -34 -7 -7 12 -6 21 3 32 18 22 31 11 31 -25z m491 -292 c-10
-27 -31 -45 -31 -27 0 13 31 62 37 57 2 -2 -1 -16 -6 -30z"/>
<path d="M715 2000 c-42 -9 -71 -27 -89 -52 -14 -19 -16 -76 -16 -409 0 -344
2 -388 16 -393 56 -21 159 23 202 87 43 64 52 93 52 161 0 49 -5 69 -20 89
-25 32 -82 45 -115 27 -12 -7 -32 -9 -44 -5 -20 6 -21 13 -21 109 0 87 3 105
18 119 35 32 57 21 53 -25 -4 -30 8 -20 48 42 43 67 64 141 53 185 -14 50 -76
80 -137 65z m76 -50 c25 -14 25 -81 1 -130 -15 -30 -22 -35 -47 -32 -17 2 -39
-5 -56 -17 -16 -12 -31 -21 -34 -21 -3 0 -5 36 -5 80 0 75 2 83 26 105 29 27
80 33 115 15z m-108 -475 c17 -11 32 -12 66 -4 35 8 48 7 67 -6 20 -13 24 -24
24 -70 0 -87 -40 -157 -114 -195 -73 -39 -76 -33 -76 140 0 82 2 150 5 150 3
0 16 -7 28 -15z"/>
<path d="M1860 1647 l0 -155 43 9 c77 17 117 61 117 132 0 74 -57 144 -132
162 l-28 7 0 -155z m105 43 c23 -44 19 -87 -10 -116 -39 -39 -50 -27 -53 61
-2 43 -1 84 2 92 8 20 42 0 61 -37z"/>
<path d="M2391 1776 c-35 -37 -51 -108 -51 -220 0 -152 41 -306 85 -323 37
-13 63 6 85 63 54 146 39 413 -27 486 -23 25 -65 23 -92 -6z m78 -45 c46 -85
42 -372 -6 -436 -14 -20 -15 -20 -33 3 -56 68 -68 377 -18 440 15 18 46 15 57
-7z"/>
<path d="M1 60 c-1 -36 3 -60 9 -60 6 0 10 25 10 60 0 33 -4 60 -9 60 -4 0 -9
-27 -10 -60z"/>
</g>
</svg>
